<svg width="829" height="586" viewBox="0 0 829 586" fill="none" xmlns="http://www.w3.org/2000/svg">
<path d="M742 222C790.049 222 829 263.414 829 314.5C829 365.586 790.049 407 742 407C763.373 341.093 762.028 300.189 742 222Z" fill="url(#paint0_linear_7_46)"/>
<path d="M87 222C38.9512 222 0 263.414 0 314.5C0 365.586 38.9512 407 87 407C65.6266 341.093 66.9723 300.189 87 222Z" fill="url(#paint1_linear_7_46)"/>
<path d="M765.5 323.597C765.5 502.314 598.867 585.401 404.6 585.401C210.334 585.401 62 502.314 62 323.597C62 144.879 219.484 0.000142223 413.75 0.000142223C608.016 0.000142223 765.5 144.879 765.5 323.597Z" fill="#F1F6FC"/>
<rect x="150" y="204" width="529" height="220" rx="95" fill="#5F5F5F" stroke="#DDDDDC" stroke-width="8"/>
<rect x="535" y="253" width="49" height="123" rx="24.5" fill="#A3AAFC" stroke="#5B5C69" stroke-width="2"/>
<rect x="252" y="253" width="49" height="123" rx="24.5" fill="#A3AAFC" stroke="#5B5C69" stroke-width="2"/>
<defs>
<linearGradient id="paint0_linear_7_46" x1="823" y1="290" x2="733" y2="292" gradientUnits="userSpaceOnUse">
<stop offset="0.423077" stop-color="#F2F8FD"/>
<stop offset="1" stop-color="#909497"/>
</linearGradient>
<linearGradient id="paint1_linear_7_46" x1="6" y1="290" x2="96" y2="292" gradientUnits="userSpaceOnUse">
<stop offset="0.423077" stop-color="#F2F8FD"/>
<stop offset="1" stop-color="#909497"/>
</linearGradient>
</defs>
</svg>
