<svg width="219" height="253" viewBox="0 0 219 253" fill="none" xmlns="http://www.w3.org/2000/svg">
<path d="M97 107C80.5 108 57.5 133.5 57.5 133.5C57.5 133.5 54.5 129 55 118C55.5 107 73 85 81 78.5C89 72 113.5 69 130 67.5C146.5 66 150 59.5 149.5 50C149 40.5 119.612 22.0961 113.5 27.5C107.388 32.9039 32.678 52.0996 23.5 80.5C14.322 108.9 24.7174 153.773 23.5 161.5C22.2826 169.227 11.23 183.945 11 194.5C4.02586 190.645 1.07374 187.42 0 177V64.5C40.9507 33.9935 64.794 20.0543 113.5 0C159.829 23.3526 194.5 42 200.5 56.5C206.5 71 178 93.5 160.5 101.5C143 109.5 113.5 106 97 107Z" fill="url(#paint0_linear_44_14)"/>
<path d="M121.315 146C137.815 145 160.815 119.5 160.815 119.5C160.815 119.5 163.815 124 163.315 135C162.815 146 145.315 168 137.315 174.5C129.315 181 104.815 184 88.3154 185.5C71.8154 187 68.3154 193.5 68.8154 203C69.3154 212.5 98.7035 230.904 104.815 225.5C110.927 220.096 185.637 200.9 194.815 172.5C203.993 144.1 193.598 99.2268 194.815 91.5C196.033 83.7732 207.085 69.0549 207.315 58.5C214.29 62.3554 217.242 65.5804 218.315 76V188.5C177.365 219.007 153.521 232.946 104.815 253C58.4864 229.647 23.8154 211 17.8154 196.5C11.8154 182 40.3154 159.5 57.8154 151.5C75.3154 143.5 104.815 147 121.315 146Z" fill="url(#paint1_linear_44_14)"/>
<defs>
<linearGradient id="paint0_linear_44_14" x1="100.658" y1="0" x2="100.658" y2="194.5" gradientUnits="userSpaceOnUse">
<stop stop-color="#05BCF6"/>
<stop offset="1" stop-color="#333A74"/>
</linearGradient>
<linearGradient id="paint1_linear_44_14" x1="117.658" y1="253" x2="117.658" y2="58.5" gradientUnits="userSpaceOnUse">
<stop stop-color="#440B45"/>
<stop offset="1" stop-color="#05BCF6"/>
</linearGradient>
</defs>
</svg>
